<svg id="Ebene_1" data-name="Ebene 1" xmlns="http://www.w3.org/2000/svg" viewBox="0 0 219.36 34.81">
  <defs>
    <style>
      .cls-1 {
        fill: #fbdd11;
      }
    </style>
  </defs>
  <g id="Group_26" data-name="Group 26">
    <g id="bananologo">
      <path id="Path_536" data-name="Path 536" class="cls-1" d="M119.63,71.89a6.43,6.43,0,0,1,1.13,3.7,6.78,6.78,0,0,1-.9,3.4,6.1,6.1,0,0,1-2.49,2.26,7.93,7.93,0,0,1-3.48.84H103.62V57.84h9.06a7,7,0,0,1,3.48.83A6.23,6.23,0,0,1,118.65,61a7,7,0,0,1,.9,3.48,6,6,0,0,1-.83,3.24,5.56,5.56,0,0,1-2.26,2.12A5.67,5.67,0,0,1,119.63,71.89ZM115.48,63a3.06,3.06,0,0,0-1.36-1.21,3.94,3.94,0,0,0-1.81-.45h-5.06v7h5a3.58,3.58,0,0,0,1.81-.45,4.52,4.52,0,0,0,1.36-1.29,4,4,0,0,0,.53-1.81,3.58,3.58,0,0,0-.45-1.81Zm-.23,15.25A4.37,4.37,0,0,0,116.61,77a3,3,0,0,0,.45-1.81,3.57,3.57,0,0,0-1.89-3.1,4,4,0,0,0-1.88-.46h-6.05v7h6.12A3.36,3.36,0,0,0,115.25,78.23Z" transform="translate(-22.5 -52.6)"/>
      <path id="Path_537" data-name="Path 537" class="cls-1" d="M138.43,78.31H127.71l-1.36,3.85h-4.08l9.67-24.32h2.34L144,82.16h-4.08ZM137.3,75l-4.15-11.47L129,75Z" transform="translate(-22.5 -52.6)"/>
      <path id="Path_538" data-name="Path 538" class="cls-1" d="M166.15,57.84V82.16h-1.51L150.44,65.7V82.16h-3.7V57.84h1.44l14.2,16.39V57.84Z" transform="translate(-22.5 -52.6)"/>
      <path id="Path_539" data-name="Path 539" class="cls-1" d="M185.11,78.31H174.38L173,82.16h-4.08l9.67-24.32h2.34l9.74,24.32h-4.08ZM183.9,75l-4.16-11.4-4.15,11.48L183.9,75Z" transform="translate(-22.5 -52.6)"/>
      <path id="Path_540" data-name="Path 540" class="cls-1" d="M212.75,57.84V82.16h-1.51L197.11,65.7V82.16h-3.7V57.84h1.44l14.2,16.39V57.84Z" transform="translate(-22.5 -52.6)"/>
      <path id="Path_541" data-name="Path 541" class="cls-1" d="M223.09,80.8a11.88,11.88,0,0,1-4.53-4.53,12.3,12.3,0,0,1,0-12.46,11.81,11.81,0,0,1,4.53-4.53,12.4,12.4,0,0,1,12.54,0,11.81,11.81,0,0,1,4.53,4.53,12.3,12.3,0,0,1,0,12.46,11.88,11.88,0,0,1-4.53,4.53A12.79,12.79,0,0,1,223.09,80.8Zm10.65-3.17a8.84,8.84,0,0,0-4.53-16.47,9,9,0,0,0-4.38,1.14,8.83,8.83,0,0,0,4.53,16.46A8.6,8.6,0,0,0,233.74,77.63Z" transform="translate(-22.5 -52.6)"/>
      <g id="Group_25" data-name="Group 25">
        <path id="Path_542" data-name="Path 542" class="cls-1" d="M69.94,87.14c-20.77,2.65-30.36-15.7-28.7-17.52,1.13-1.21,2.87-1.28,4.38-1.28,7-.15,16.77,7.93,18.8,7.93,3.85-.08,9.67-6.27,13.52-11.33,1.58-2.11,11.55-5.36,10.42.23C84.82,83.22,72.58,86.77,69.94,87.14Z" transform="translate(-22.5 -52.6)"/>
        <path id="Path_543" data-name="Path 543" class="cls-1" d="M41,52.86c20.76-2.65,30.35,15.71,28.7,17.52-1.14,1.21-2.87,1.28-4.38,1.28-7,.15-16.77-7.93-18.8-7.93C42.69,63.81,36.87,70,33,75.06c-1.6,2.11-11.57,5.36-10.43-.23C26.14,56.71,38.37,53.16,41,52.86Z" transform="translate(-22.5 -52.6)"/>
      </g>
    </g>
  </g>
</svg>
