<svg xmlns="http://www.w3.org/2000/svg" xmlns:xlink="http://www.w3.org/1999/xlink" viewBox="0 0 725.06 159.03">
  <defs>
    <style>
      .cls-1 {
        fill: none;
      }

      .cls-2 {
        clip-path: url(#clip-path);
      }

      .cls-3 {
        fill: #edf0f1;
      }

      .cls-4 {
        fill: #9366e1;
      }
    </style>
    <clipPath id="clip-path" transform="translate(0 -0.14)">
      <rect class="cls-1" width="725.06" height="159.31"/>
    </clipPath>
  </defs>
  <g id="Ebene_2" data-name="Ebene 2">
    <g id="Layer_1" data-name="Layer 1">
      <g class="cls-2">
        <g>
          <path class="cls-3" d="M283.66,50.75a26.74,26.74,0,0,1,10.61,11.43A37.09,37.09,0,0,1,298.37,80c0,6.72-1.36,12.44-4.44,17.48a25.38,25.38,0,0,1-12,11.09,38.46,38.46,0,0,1-17.79,4,28.36,28.36,0,0,1-10.61-2,21.85,21.85,0,0,1-8.9-5.38v34.95H224.81V48.06h17.11l1.71,7.4c7.52-6.05,15.74-9.08,24.29-9.08A27.73,27.73,0,0,1,283.66,50.75Zm-11,41.68a15.34,15.34,0,0,0,5.13-12.1,17.66,17.66,0,0,0-4.79-12.44c-3.08-3.36-7.18-4.7-11.63-4.7a18.88,18.88,0,0,0-9.92,2.35,15.62,15.62,0,0,0-6.5,6.72V87.39a14.24,14.24,0,0,0,5.47,7,17.82,17.82,0,0,0,9.58,2.69A18.37,18.37,0,0,0,272.71,92.43Z" transform="translate(0 -0.14)"/>
          <path class="cls-3" d="M310,62.51a31.85,31.85,0,0,1,12.66-11.43,41.43,41.43,0,0,1,18.47-4.37,37.4,37.4,0,0,1,18.48,4.37,31.59,31.59,0,0,1,12.32,11.76,34,34,0,0,1,0,33.61c-3.08,5-6.84,9.08-12.32,11.77a40.37,40.37,0,0,1-18.48,4.37,41.36,41.36,0,0,1-18.47-4A29.56,29.56,0,0,1,310,97.17a35.76,35.76,0,0,1,0-34.66Zm20.18,29.24c2.74,3.36,6.51,4.7,10.95,4.7a14.33,14.33,0,0,0,10.95-4.7c2.74-3,4.11-7.4,4.11-12.1q0-7.56-4.11-12.1a14.22,14.22,0,0,0-11.29-5,14.94,14.94,0,0,0-10.95,4.7,18.87,18.87,0,0,0-4.1,12.44A17.22,17.22,0,0,0,330.19,91.75Z" transform="translate(0 -0.14)"/>
          <path class="cls-3" d="M408.53.33V110.91H388.71V.33Z" transform="translate(0 -0.14)"/>
          <path class="cls-3" d="M490,49.74l-40.38,90.75H430.45l15.08-32.61L416.78,49.74h22.59L455.79,86l16.43-36.3Z" transform="translate(0 -0.14)"/>
          <path class="cls-3" d="M566,49.74v61.17a26.39,26.39,0,0,1-5.14,15.75,34.16,34.16,0,0,1-13.68,11.09,44,44,0,0,1-18.82,4A51.44,51.44,0,0,1,515,140.07a61.85,61.85,0,0,1-9.23-4,62.6,62.6,0,0,1-8.56-6.38l11.64-13.45a33.08,33.08,0,0,0,8.55,6.05A24.65,24.65,0,0,0,528,124.66a21.67,21.67,0,0,0,12.66-3.7,12.08,12.08,0,0,0,5.13-10.42V101.8a22.19,22.19,0,0,1-8.9,7.73,32.22,32.22,0,0,1-14.37,3,29.36,29.36,0,0,1-15.74-4.37,32.33,32.33,0,0,1-11.63-11.77,34,34,0,0,1-4.45-16.46,31.73,31.73,0,0,1,4.45-16.81,34.09,34.09,0,0,1,12-12.1,28.06,28.06,0,0,1,15.4-4.37,43.25,43.25,0,0,1,13.69,2,20.5,20.5,0,0,1,9.24,5.71l2-4.7ZM545.76,87.38V72.25a14.59,14.59,0,0,0-6.5-7,21.52,21.52,0,0,0-10.61-2.69,18.09,18.09,0,0,0-12.32,4.7,15.34,15.34,0,0,0-5.13,12.1,17.36,17.36,0,0,0,17.24,17.48h.21c7.88-.39,13.69-3.41,17.11-9.46Z" transform="translate(0 -0.14)"/>
          <path class="cls-3" d="M582.38,62.51A32.62,32.62,0,0,1,595,50.75a41.48,41.48,0,0,1,18.49-4.37A37.47,37.47,0,0,1,632,50.75a31.52,31.52,0,0,1,12.32,11.76,34.18,34.18,0,0,1,4.45,16.81,30.94,30.94,0,0,1-4.45,16.8A27.5,27.5,0,0,1,632,107.89a40.43,40.43,0,0,1-18.47,4.37,41.41,41.41,0,0,1-18.48-4,29.5,29.5,0,0,1-12.66-11.42c-3.08-5-4.45-10.76-4.45-17.82A31.44,31.44,0,0,1,582.38,62.51Zm19.84,29.25c2.74,3.36,6.5,4.7,10.95,4.7a14.35,14.35,0,0,0,11-4.7c2.74-3,4.11-7.4,4.11-12.1q0-7.57-4.11-12.1a14.31,14.31,0,0,0-11-4.71,14.84,14.84,0,0,0-10.95,4.71c-3.08,3-4.44,7.39-4.44,12.1A21,21,0,0,0,602.22,91.76Z" transform="translate(0 -0.14)"/>
          <path class="cls-3" d="M718.91,51.75c4.1,3.36,5.81,7.73,6.15,13.11v46.05H704.87V72.25q-.51-9.07-9.23-9.07c-4.45,0-8.22,2-11,6.39s-4.11,9.74-4.11,16.13v25.21h-19.8V49.74h18.14l1.37,9.74a25.38,25.38,0,0,1,9.58-9.41c4.1-2.35,8.9-3.36,14.37-3.36C710,46.71,715.14,48.39,718.91,51.75Z" transform="translate(0 -0.14)"/>
          <path class="cls-4" d="M140,48.73a12,12,0,0,0-11.63,0L101.63,64.2,83.53,74.28,56.8,89.74a11.92,11.92,0,0,1-11.63,0L24,77.66a11.56,11.56,0,0,1-5.81-9.75V44A10.88,10.88,0,0,1,24,34.28L44.83,22.52a11.92,11.92,0,0,1,11.63,0L77.33,34.28A11.57,11.57,0,0,1,83.15,44V59.49l18.13-10.42V33.66a10.88,10.88,0,0,0-5.81-9.75L56.8,1.66a11.92,11.92,0,0,0-11.63,0L5.82,23.86A10.88,10.88,0,0,0,0,33.66v44.7a10.86,10.86,0,0,0,5.82,9.75l39.35,22.18a11.92,11.92,0,0,0,11.63,0L83.53,95.12l18.1-10.46,26.69-15.13a12,12,0,0,1,11.63,0L160.82,81.3A11.54,11.54,0,0,1,166.64,91v23.87a10.84,10.84,0,0,1-5.82,9.74L140,136.75a11.92,11.92,0,0,1-11.63,0L107.44,125a11.56,11.56,0,0,1-5.81-9.75V99.82l-18.1,10.42v15.42a10.86,10.86,0,0,0,5.82,9.75l39.31,22.25a11.92,11.92,0,0,0,11.63,0l39.35-22.18a11.57,11.57,0,0,0,5.82-9.75V81a10.91,10.91,0,0,0-5.82-9.75Z" transform="translate(0 -0.14)"/>
        </g>
      </g>
    </g>
  </g>
</svg>
