<svg xmlns="http://www.w3.org/2000/svg" viewBox="0 0 1920 479.83">
  <g id="Ebene_2" data-name="Ebene 2">
    <g id="Ebene_1-2" data-name="Ebene 1">
      <g id="Layer_1">
        <path style="filter: invert(1);" d="M1472.26,71.09h42.62V409h-42.62Zm-84.87,0h42.24V409h-42.24Zm328.32,233.09c0,59.13-38,77.18-77.57,77.18-30.33,0-48.38-15.74-48.38-39.55,0-34.56,49.15-46.08,126-53.38Zm38.4,10.75.39-58.37c.76-71-29.19-103.29-99.46-103.29-48.38,0-97.15,30.33-100.61,84.48h43.78c1.92-31.11,21.89-49.92,57.21-49.92,31.88,0,56.84,15,56.84,61V255c-102.53,11.13-169.73,28.8-169.73,87.93,0,46.08,39.17,72.19,86.4,72.19,44.54,0,70.27-14.2,85.63-40.32A250.8,250.8,0,0,0,1718,409h42.62c-5.38-23.81-6.91-52.22-6.53-94.46Zm153.22-157.82c-33,1.15-58,16.51-70.66,44.92V158.26H1795.2V409h42.24V277.3c0-55.68,19.58-76.8,58.75-76.8,8.07.38,15.75.77,23.81,2.3V157.49c-4.22-.38-8.45-.38-12.67-.38ZM1067.14,95.67h-42.63v62.59H985v34.17h39.55V346c0,52.23,11.14,63,59.14,63h31.1V373.3h-21.5c-24.19,0-26.11-6.53-26.11-32.26V192.43h47.61V158.26h-47.61ZM862.46,215.47l-39.16-8.83c-31.88-7.29-55.3-21.89-55.3-51.84,0-38,45.7-49.53,71.81-49.53,33.79,0,73,13.44,84.09,52.22H970c-13.44-64.9-67.2-92.16-127.87-92.16C787.58,65.33,720,92.59,720,157.49c0,56.06,46.08,82.18,92.54,92.16l42.24,8.83c42.63,10,72.58,23.81,72.58,59.91,0,33.4-28.42,56.83-78.72,56.83-52.61,0-84.48-24.19-93.31-71H708.86c8.84,67.2,59.14,111,138.63,111,67.2,0,128.64-35.32,128.64-101.37,0-68-62.21-87.55-113.67-98.69Zm303.75,46.08c3.84-50.68,38.4-71,75.65-71,45.31,0,70.65,35.33,72.19,71ZM1241.86,154c-68.36,0-121.73,50.69-121.73,130.18,0,74.11,43.77,130.94,122.88,130.94,61,0,101.37-35.71,112.13-78.72h-43c-10.75,24.58-31.49,41.48-68.74,41.48s-76-26.12-77.18-79.88H1359c5.37-79.87-39.94-143.61-116.74-143.61ZM567.17,120.24,119.42,348.34,80.26,367.92,0,409v49.15l79.87-40.7,68.35-34.95L478.46,214.32c14.21,107.52-61.44,206.21-169,220.42a194.57,194.57,0,0,1-26.11,1.92,197,197,0,0,1-96-25.35l-2.3,1.54L142.85,434C250,511.92,400.13,488.11,478.08,380.59a239.11,239.11,0,0,0,45.7-140.54,147.57,147.57,0,0,0-.77-18.43,44,44,0,0,1,23.81-42.24l20.35-10.75ZM487.3,63,418.94,97.59,89.09,265.78C74.88,158.26,150.91,59.57,258.43,45.36A196.52,196.52,0,0,1,379.78,68.79l39.16-20,5.76-3.07C317.57-32.21,167.42-8,89.47,99.12A238.52,238.52,0,0,0,43.78,240.05c0,6.14,0,12.29.38,18.43a43.38,43.38,0,0,1-23.42,42.24L0,311.09v49.15l60.67-31.1,19.59-10,19.58-9.6,347.52-177.4,39.17-20,80.64-41.09V21.94Z"/>
      </g>
    </g>
  </g>
</svg>
