<svg id="Monero-Logo" xmlns="http://www.w3.org/2000/svg" viewBox="0 0 281.11 73.81">
  <defs>
    <style>
      .cls-1 {
        fill: #f60;
      }

      .cls-2 {
        fill: rgb(141, 141, 141);
      }
    </style>
  </defs>
  <path id="path22" class="cls-1" d="M37.3.35a36.93,36.93,0,0,0-35,48.56h11v-31l24,24,24-24V48.91h11A36.93,36.93,0,0,0,37.3.35" transform="translate(-0.4 -0.35)"/>
  <path id="path26" class="cls-2" d="M21.32,36.9V56.43H5.77a36.9,36.9,0,0,0,63.06,0H53.28V36.9l-16,16Z" transform="translate(-0.4 -0.35)"/>
  <path id="path30" class="cls-2" d="M272.71,47.76a9.52,9.52,0,0,1-7.1,3,10,10,0,0,1-6.53-2.32,9.85,9.85,0,0,1-3.67-8.09,10.31,10.31,0,0,1,2.92-7.55,10.06,10.06,0,0,1,14.36.07,10.29,10.29,0,0,1,3,7.45,10.24,10.24,0,0,1-2.94,7.43m4.1-18.94a15.31,15.31,0,0,0-11.24-4.73,16.13,16.13,0,0,0-13.93,8.05,16.47,16.47,0,0,0,2.46,19.51,16.06,16.06,0,0,0,22.77.13,15.59,15.59,0,0,0,4.64-11.42,15.81,15.81,0,0,0-4.7-11.54" transform="translate(-0.4 -0.35)"/>
  <path id="path34" class="cls-2" d="M238.31,36c-.75.52-1.1.77-3.06.77h-7.74V30.13H235a5.14,5.14,0,0,1,2.38.34,3,3,0,0,1,2,3,2.89,2.89,0,0,1-1.1,2.54m.93,6.09a9.24,9.24,0,0,0,4.6-3.24,8.93,8.93,0,0,0,1.53-5.33A9.78,9.78,0,0,0,244,28.23a8,8,0,0,0-3.66-3.17c-1.52-.64-4.06-1-7.64-1H221.36V56.44h6.15V42.75h5.37l7.28,13.69h6.73l-7.65-14.38Z" transform="translate(-0.4 -0.35)"/>
  <path id="path38" class="cls-2" d="M193.78,24.09h21v6H199.89v6.62h14.85v5.92H199.89v7.73h14.85v6h-21Z" transform="translate(-0.4 -0.35)"/>
  <path id="path42" class="cls-2" d="M161.29,24.09h5.89l13.87,21.28V24.09h6.15V56.43h-5.91L167.44,35.22V56.43h-6.15Z" transform="translate(-0.4 -0.35)"/>
  <g id="use46">
    <path id="path30-2" data-name="path30" class="cls-2" d="M147.65,47.76a9.52,9.52,0,0,1-7.1,3A10,10,0,0,1,134,48.45a9.85,9.85,0,0,1-3.67-8.09,10.31,10.31,0,0,1,2.92-7.55,10.06,10.06,0,0,1,14.36.07,10.29,10.29,0,0,1,3,7.45,10.24,10.24,0,0,1-2.94,7.43m4.1-18.94a15.3,15.3,0,0,0-11.24-4.73,16.13,16.13,0,0,0-13.93,8.05A16.47,16.47,0,0,0,129,51.65a16.06,16.06,0,0,0,22.77.13,15.55,15.55,0,0,0,4.64-11.42,15.81,15.81,0,0,0-4.7-11.54" transform="translate(-0.4 -0.35)"/>
  </g>
  <path id="path50" class="cls-2" d="M89.69,24.09h6l7.48,22.56,7.58-22.56h5.94l5.45,32.34h-5.94L112.75,36l-6.88,20.42h-5.43L93.65,36,90.11,56.43h-6Z" transform="translate(-0.4 -0.35)"/>
</svg>
