<svg xmlns="http://www.w3.org/2000/svg" viewBox="0 0 779.12 482.99">
  <defs>
    <style>
      .cls-1 {
        fill: #fac54a;
      }

      .cls-2 {
        fill: none;
        stroke: #fac54a;
        stroke-miterlimit: 10;
        stroke-width: 16px;
      }
    </style>
  </defs>
  <g id="Ebene_2" data-name="Ebene 2">
    <g id="LogoSVG">
      <path class="cls-1" d="M576.33,205.89a134,134,0,1,0,134,134A133.43,133.43,0,0,0,576.33,205.89Zm0,223a89,89,0,1,1,89-89A88.65,88.65,0,0,1,576.33,428.89Z"/>
      <path class="cls-1" d="M353,330.11a134.87,134.87,0,1,0,.35,9.78Q353.33,335,353,330.11ZM282.09,403a89,89,0,1,1,26.24-63.1A88.7,88.7,0,0,1,282.09,403Z"/>
      <polyline class="cls-2" points="442.33 473.89 433.93 469.64 397.83 451.39 363.47 468.76 353.33 473.89"/>
      <path class="cls-2" d="M8.12,482.86C.12,7.86,397.82,8,397.82,8V205.89"/>
      <path class="cls-2" d="M398.2,205.91C507.15,7.91,771.12,8,771.12,8V473.86"/>
      <rect class="cls-1" x="389.83" y="205.79" width="15.38" height="3.98"/>
    </g>
  </g>
</svg>
