<svg xmlns="http://www.w3.org/2000/svg" viewBox="0 0 735 735">
  <defs>
    <style>
      .cls-1 {
        fill: #fac54a;
      }

      .cls-2 {
        fill: #edf0f1;
      }
    </style>
  </defs>
  <g id="Ebene_2" data-name="Ebene 2">
    <g id="LogoSVG">
      <rect class="cls-1" width="735" height="735" rx="90"/>
      <path class="cls-2" d="M508.49,84.44H225a141.77,141.77,0,0,0-77.87,260.22V509.22h.37v.72a77.75,77.75,0,0,0,77.75,77.75H390.11a141.76,141.76,0,0,0,260.13-78V226.19A141.75,141.75,0,0,0,508.49,84.44Zm78.13,424.78h-.13v.72a77.75,77.75,0,0,1-77.75,77.75h-.25A77.76,77.76,0,0,1,431,509.94c0-1.51.05-3,.13-4.5V432.19H302.62v-128H225.24a77.75,77.75,0,0,1-77.75-77.75v-.22a77.75,77.75,0,0,1,77.75-77.53h283.5a77.75,77.75,0,0,1,77.75,77.53h.13Z"/>
    </g>
  </g>
</svg>
