<!--
<svg id="LogoSVG" xmlns="http://www.w3.org/2000/svg" viewBox="0 0 567 567">
  <g id="Logo">
    <path d="M2660.5,267c-154.47,0-280.05,123.51-283.44,277.15,0,2.12-.06,4.23-.06,6.35V834h283.5c154.47,0,280.05-123.51,283.44-277.15,0-2.12.06-4.23.06-6.35V267Zm1.06,440.06a155.5,155.5,0,1,1,155.5-155.5A155.5,155.5,0,0,1,2661.56,707.06Z" transform="translate(-2377 -267)" style="fill: #fac54a"/>
  </g>
</svg>
-->

<svg class="LogoSVG" xmlns="http://www.w3.org/2000/svg" viewBox="0 0 1134 567">
  <defs>
    <style>
      .module {
        fill: #fac54a;
      }
    </style>
  </defs>
  <g id="LogoSVG">
   <!--
   <circle class="module" cx="284" cy="284" r="89"/>
   <circle class="module" cx="851" cy="284" r="89"/>
   -->
   <path class="module" d="M283.5,0C126.93,0,0,126.93,0,283.5V567H850.5c156.57,0,283.5-126.93,283.5-283.5V0Zm1,439.5H284a155.5,155.5,0,0,1,0-311h.5a155.5,155.5,0,0,1,0,311Zm235.75,0A282.15,282.15,0,0,0,567,283.5a282.15,282.15,0,0,0,46.75,156Zm330.75,0h-.5a155.5,155.5,0,0,1,0-311h.5a155.5,155.5,0,0,1,0,311Z"/>
  </g>
</svg>  
